<svg id="Race_Face" data-name="Race Face" xmlns="http://www.w3.org/2000/svg" viewBox="0 0 389.41 468"><defs><style>.cls-1{fill:#3b6d37;}.cls-2{fill:#fff;}.cls-3{fill:#936748;}.cls-4{fill:#566cd8;}.cls-5{fill:none;stroke:#000;stroke-miterlimit:10;}.cls-6{fill:#bf8c6a;}.cls-7{fill:#c4c4c4;}</style></defs><title>archer_orc</title><g id="Orc"><g id="skin_copy_2" data-name="skin copy 2"><rect class="cls-1" x="60.37" y="27" width="169.02" height="99"/><rect class="cls-1" x="96.59" y="117.88" width="120.73" height="36.22"/></g><g id="Head_structure_copy_3" data-name="Head structure copy 3"><rect x="48.29" y="57.51" width="12.07" height="68.49"/><rect x="217.32" y="57.51" width="12.07" height="48.29"/><rect x="229.39" y="93.73" width="12.07" height="24.15"/><rect x="217.32" y="117.88" width="12.07" height="26.12"/><rect x="169.02" y="81" width="24.15" height="24.8"/><rect x="158.27" y="72" width="24.15" height="18"/><rect class="cls-2" x="156.95" y="69.59" width="12.07" height="36.22"/><rect class="cls-2" x="155.41" y="117" width="12.07" height="18.22"/><rect x="155.41" y="129.95" width="49.83" height="12.07"/><rect x="218.41" y="113.93" width="4.83" height="3.07"/></g></g><g id="Archer"><rect class="cls-2" x="24.15" y="153" width="241.46" height="170.12"/><rect class="cls-3" x="110.41" y="153" width="43.46" height="171"/><rect class="cls-3" x="83.41" y="144" width="36" height="99"/><rect class="cls-3" x="191.41" y="153" width="43.46" height="90"/><rect class="cls-3" x="164.41" y="153" width="45" height="171"/><rect class="cls-4" x="72.44" y="323.12" width="169.02" height="120.73"/><rect class="cls-2" x="48.29" y="142.02" width="35.12" height="12.07"/><rect class="cls-3" x="74.41" width="135" height="21.29"/><rect class="cls-3" x="169.02" y="21.29" width="94.39" height="24.15"/><rect class="cls-3" x="335.41" y="81.41" width="36" height="31.17" transform="translate(317.83 -317.41) rotate(90)"/><rect class="cls-3" x="38.41" y="21.29" width="82.32" height="24.15"/><g id="Body_Structure_copy_5" data-name="Body Structure copy 5"><rect x="119.41" y="146.85" width="96.59" height="24.15"/><rect x="212.27" y="137.85" width="33.15" height="24.15"/><rect x="96.59" y="129.95" width="24.15" height="24.15"/><rect x="47.41" y="126" width="54" height="24.15"/><rect x="24.15" y="129.95" width="24.15" height="24.15"/><rect x="72.44" y="178.24" width="24.15" height="46.76"/><rect x="83.41" y="209.63" width="24.15" height="42.37"/><rect x="72.44" y="324" width="24.15" height="47.41"/><rect x="241.46" y="154.1" width="24.15" height="108.66"/><rect x="217.32" y="226.54" width="24.15" height="193.17"/><rect x="169.02" y="323.12" width="24.15" height="96.59"/><rect x="241.46" y="419.71" width="24.15" height="48.29"/><rect x="193.17" y="419.71" width="24.15" height="48.29"/><rect x="48.29" y="443.85" width="217.32" height="24.15"/><rect x="48.29" y="371.41" width="24.15" height="72.44"/></g><g id="bow"><rect class="cls-3" x="281.41" y="234" width="18" height="63"/><rect class="cls-3" x="272.41" y="288" width="18" height="63"/><rect class="cls-3" x="263.41" y="333" width="18" height="45"/><rect class="cls-3" x="382.5" y="425.5" width="18" height="27" transform="translate(697.91 -13.5) rotate(90)"/><rect class="cls-3" x="364.5" y="434.5" width="18" height="27" transform="translate(688.91 13.5) rotate(90)"/><rect class="cls-3" x="272.41" y="198" width="18" height="45"/><rect class="cls-3" x="391.5" y="245.5" width="18" height="27" transform="translate(8.91 598.5) rotate(-90)"/><rect class="cls-3" x="373.5" y="236.5" width="18" height="27" transform="translate(-0.09 571.5) rotate(-90)"/><line class="cls-5" x1="236.41" y1="198" x2="101.41" y2="306"/><line class="cls-5" x1="227.41" y1="387" x2="110.41" y2="297"/></g><rect class="cls-2" x="21.95" y="270" width="88.46" height="45"/><rect class="cls-2" x="236.41" y="261" width="34.46" height="63"/><rect y="154.1" width="24.15" height="169.02"/><rect x="104.27" y="243" width="24.15" height="60.37"/><rect x="47.41" y="299.85" width="63" height="24.15"/><rect x="19.98" y="308.85" width="36.44" height="24.15"/><rect x="265.61" y="261" width="24.15" height="71.12"/><rect x="218.41" y="261" width="24.15" height="69.11"/><rect x="241.46" y="323.12" width="24.15" height="24.15"/><g id="Arrow"><rect class="cls-6" x="119.41" y="288" width="225" height="9"/><rect class="cls-7" x="344.41" y="279" width="36" height="27"/><rect class="cls-7" x="335.41" y="270" width="18" height="18"/><rect class="cls-7" x="335.41" y="297" width="18" height="18"/><rect class="cls-7" x="371.41" y="288" width="18" height="9"/></g><g id="Helmet_Structure_copy_5" data-name="Helmet Structure copy 5"><rect x="29.41" y="45" width="43.02" height="12.51"/><rect x="47.41" y="9" width="27" height="12.29"/><rect x="65.41" width="27" height="12.29"/><rect x="29.41" y="18" width="27" height="18"/><rect x="29.41" y="32.71" width="9" height="12.29"/><rect x="92.41" width="121.83" height="9"/><rect x="209.41" y="9" width="24.15" height="12.29"/><rect x="245.41" y="21.29" width="18" height="23.71"/><rect x="236.41" y="45" width="18" height="14.71"/><rect x="72.44" y="45.44" width="36.22" height="12.07"/><rect x="108.66" y="33.37" width="12.07" height="12.07"/><rect x="120.73" y="21.29" width="48.29" height="12.07"/><rect x="193.17" y="45.44" width="12.07" height="8.56"/><rect x="169.02" y="33.37" width="24.15" height="12.07"/><rect x="227.41" y="14.93" width="27" height="12.07"/><rect x="203.27" y="50.93" width="33.15" height="12.07"/></g></g></svg>