<svg id="Race_Face" data-name="Race Face" xmlns="http://www.w3.org/2000/svg" viewBox="0 0 333 504"><defs><style>.cls-1{fill:#f9e79b;}.cls-2{fill:#fff;}.cls-3{fill:#b20214;}.cls-4{fill:#566cd8;}.cls-5{fill:#965b32;}.cls-6{fill:none;stroke:#000;stroke-miterlimit:10;}</style></defs><title>bard_elf</title><g id="Elf"><g id="skin_copy" data-name="skin copy"><rect class="cls-1" x="63.66" y="63" width="169.02" height="99"/><rect class="cls-1" x="99.88" y="153.88" width="120.73" height="36.22"/></g><g id="Head_structure_copy_2" data-name="Head structure copy 2"><rect x="51.59" y="93.51" width="12.07" height="77.49"/><rect x="220.61" y="93.51" width="12.07" height="48.29"/><rect x="232.68" y="129.73" width="12.07" height="24.15"/><rect x="220.61" y="153.88" width="12.07" height="26.12"/><rect x="164.85" y="110.2" width="24.15" height="24.8"/><rect class="cls-2" x="152.78" y="110.2" width="12.07" height="24.8"/><rect x="174.07" y="162" width="36.22" height="12.07"/><rect x="162" y="162" width="12.07" height="12.07"/><rect x="72" y="108" width="18" height="9"/><rect x="54" y="99" width="18" height="9"/><rect x="45" y="90" width="9" height="9"/><rect x="36" y="90" width="9" height="9"/><rect x="54" y="126" width="18" height="9"/><rect x="45" y="117" width="9" height="9"/><rect x="27" y="99" width="9" height="9"/><rect x="36" y="108" width="9" height="9"/><rect class="cls-1" x="45" y="99" width="9" height="18"/><rect class="cls-1" x="36" y="99" width="9" height="9"/><rect class="cls-1" x="54" y="108" width="18" height="18"/></g></g><g id="Bard"><rect class="cls-2" x="30.73" y="189" width="241.46" height="170.12"/><rect class="cls-3" x="117" y="189" width="43.46" height="171"/><rect class="cls-3" x="90" y="180" width="36" height="99"/><rect class="cls-3" x="198" y="189" width="43.46" height="90"/><rect class="cls-3" x="171" y="189" width="45" height="171"/><rect class="cls-4" x="79.02" y="359.12" width="169.02" height="120.73"/><rect class="cls-2" x="54.88" y="178.02" width="35.12" height="12.07"/><rect class="cls-3" x="81" y="36" width="135" height="21.29"/><rect class="cls-3" x="108" y="9" width="72" height="36"/><rect class="cls-3" x="99" y="27" width="9" height="9"/><rect class="cls-3" x="180" y="27" width="9" height="9"/><rect class="cls-3" x="175.61" y="57.29" width="94.39" height="24.15"/><rect class="cls-3" x="335.41" y="81.41" width="36" height="31.17" transform="translate(324.41 -281.41) rotate(90)"/><rect class="cls-3" x="45" y="57.29" width="82.32" height="24.15"/><g id="Body_Structure_copy_3" data-name="Body Structure copy 3"><rect x="126" y="182.85" width="96.59" height="24.15"/><rect x="218.85" y="173.85" width="33.15" height="24.15"/><rect x="103.17" y="165.95" width="24.15" height="24.15"/><rect x="54" y="162" width="54" height="24.15"/><rect x="30.73" y="165.95" width="24.15" height="24.15"/><rect x="79.02" y="214.24" width="24.15" height="46.76"/><rect x="90" y="245.63" width="24.15" height="42.37"/><rect x="79.02" y="360" width="24.15" height="47.41"/><rect x="248.05" y="190.1" width="24.15" height="108.66"/><rect x="223.9" y="262.54" width="24.15" height="193.17"/><rect x="175.61" y="359.12" width="24.15" height="96.59"/><rect x="248.05" y="455.71" width="24.15" height="48.29"/><rect x="199.76" y="455.71" width="24.15" height="48.29"/><rect x="54.88" y="479.85" width="217.32" height="24.15"/><rect x="54.88" y="407.41" width="24.15" height="72.44"/></g><g id="instrument"><rect class="cls-5" x="171" y="315" width="135" height="81"/><rect class="cls-5" x="288" y="324" width="45" height="63"/><rect class="cls-5" x="342" y="295" width="45" height="99" transform="translate(-106 684) rotate(-90)"/><rect class="cls-5" x="193.5" y="290.5" width="36" height="171" transform="translate(-290.5 562.5) rotate(-90)"/><rect class="cls-5" x="342" y="367" width="45" height="99" transform="translate(-178 756) rotate(-90)"/><polygon class="cls-6" points="27 342.5 315 342.5 315 342.5 27 342.5 27 342.5"/><polygon class="cls-6" points="27 347.5 315 347.5 315 347.5 27 347.5 27 347.5"/><polygon class="cls-6" points="27 353.5 315 353.5 315 353.5 27 353.5 27 353.5"/><polygon class="cls-6" points="27 358.5 315 358.5 315 358.5 27 358.5 27 358.5"/></g><rect class="cls-2" x="28.54" y="306" width="88.46" height="45"/><rect class="cls-2" x="243" y="297" width="34.46" height="63"/><rect x="6.59" y="190.1" width="24.15" height="169.02"/><rect x="110.85" y="279" width="24.15" height="60.37"/><rect x="54" y="335.85" width="63" height="24.15"/><rect x="26.56" y="344.85" width="36.44" height="24.15"/><rect x="272.2" y="297" width="24.15" height="71.12"/><rect x="225" y="297" width="24.15" height="69.11"/><rect x="248.05" y="359.12" width="24.15" height="24.15"/><g id="Helmet_Structure_copy_3" data-name="Helmet Structure copy 3"><rect x="36" y="81" width="43.02" height="12.51"/><rect x="54" y="45" width="27" height="12.29"/><rect x="72" y="36" width="27" height="12.29"/><rect x="213.53" y="51.18" width="19.65" height="3.29" transform="translate(44.53 251.18) rotate(-90)"/><rect x="36" y="54" width="27" height="18"/><rect x="18" y="68.71" width="27" height="12.29"/><rect x="252" y="68.71" width="27" height="12.29"/><rect x="180" y="27" width="13.83" height="6.15"/><rect x="301.5" y="42.34" width="12.84" height="14.16" transform="translate(231.34 -283.5) rotate(90)"/><rect x="99" y="36" width="121.83" height="9"/><rect x="108" width="63" height="9"/><rect x="189" y="29.85" width="9" height="15.15"/><rect x="99" y="15.15" width="9" height="11.85"/><rect x="232.57" y="32.57" width="9" height="11.85" transform="translate(149.57 -223.57) rotate(90)"/><rect x="295.57" y="32.57" width="9" height="11.85" transform="translate(212.57 -286.57) rotate(90)"/><rect x="216" y="45" width="24.15" height="12.29"/><rect x="261" y="45" width="12.07" height="14.71"/><rect x="270" y="54" width="18" height="14.71"/><rect x="243" y="81" width="18" height="14.71"/><rect x="79.02" y="81.44" width="36.22" height="12.07"/><rect x="115.24" y="69.37" width="12.07" height="12.07"/><rect x="127.32" y="57.29" width="48.29" height="12.07"/><rect x="199.76" y="81.44" width="12.07" height="8.56"/><rect x="175.61" y="69.37" width="24.15" height="12.07"/><rect x="234" y="50.93" width="27" height="12.07"/><rect x="209.85" y="86.93" width="33.15" height="12.07"/></g></g></svg>