<svg id="Race_Face" data-name="Race Face" xmlns="http://www.w3.org/2000/svg" viewBox="0 0 398.41 495"><defs><style>.cls-1{fill:#f9e79b;}.cls-2{fill:#fff;}.cls-3{fill:#bfbfbf;}.cls-4{fill:#919191;}.cls-5{fill:#3a3a3a;}.cls-6{fill:#e6e6e6;}</style></defs><title>warrior_elf</title><g id="Elf"><g id="skin_copy" data-name="skin copy"><rect class="cls-1" x="57.07" y="54" width="169.02" height="99"/><rect class="cls-1" x="93.29" y="144.88" width="120.73" height="36.22"/></g><g id="Head_structure_copy_2" data-name="Head structure copy 2"><rect x="45" y="84.51" width="12.07" height="77.49"/><rect x="214.02" y="84.51" width="12.07" height="48.29"/><rect x="226.1" y="120.73" width="12.07" height="24.15"/><rect x="214.02" y="144.88" width="12.07" height="26.12"/><rect x="158.27" y="101.2" width="24.15" height="24.8"/><rect class="cls-2" x="146.2" y="101.2" width="12.07" height="24.8"/><rect x="167.49" y="153" width="36.22" height="12.07"/><rect x="155.41" y="153" width="12.07" height="12.07"/><rect x="65.41" y="99" width="18" height="9"/><rect x="47.41" y="90" width="18" height="9"/><rect x="38.41" y="81" width="9" height="9"/><rect x="29.41" y="81" width="9" height="9"/><rect x="47.41" y="117" width="18" height="9"/><rect x="38.41" y="108" width="9" height="9"/><rect x="20.41" y="90" width="9" height="9"/><rect x="29.41" y="99" width="9" height="9"/><rect class="cls-1" x="38.41" y="90" width="9" height="18"/><rect class="cls-1" x="29.41" y="90" width="9" height="9"/><rect class="cls-1" x="47.41" y="99" width="18" height="18"/></g></g><g id="Warrior"><rect class="cls-3" x="24.15" y="181.1" width="241.46" height="169.02"/><rect class="cls-4" x="72.44" y="350.12" width="169.02" height="120.73"/><rect class="cls-3" x="48.29" y="169.02" width="48.29" height="12.07"/><rect class="cls-3" x="96.59" y="24.15" width="96.59" height="24.15"/><rect class="cls-3" x="169.02" y="48.29" width="48.29" height="24.15"/><rect class="cls-3" x="325.76" y="106.44" width="48.29" height="24.15" transform="translate(335.83 -265.39) rotate(90)"/><rect class="cls-3" x="72.44" y="48.29" width="48.29" height="24.15"/><g id="Body_Structure_copy" data-name="Body Structure copy"><rect x="120.73" y="181.1" width="96.59" height="24.15"/><rect x="217.32" y="156.95" width="24.15" height="24.15"/><rect x="96.59" y="156.95" width="24.15" height="24.15"/><rect x="48.29" y="144.88" width="48.29" height="24.15"/><rect x="24.15" y="156.95" width="24.15" height="24.15"/><rect y="181.1" width="24.15" height="169.02"/><rect x="72.44" y="205.24" width="24.15" height="84.51"/><rect x="96.59" y="289.76" width="24.15" height="60.37"/><rect x="24.15" y="350.12" width="72.44" height="24.15"/><rect x="72.44" y="374.27" width="24.15" height="24.15"/><rect x="241.46" y="181.1" width="24.15" height="108.66"/><rect x="217.32" y="253.54" width="24.15" height="193.17"/><rect x="265.61" y="289.76" width="24.15" height="60.37"/><rect x="241.46" y="350.12" width="24.15" height="24.15"/><rect x="169.02" y="350.12" width="24.15" height="96.59"/><rect x="241.46" y="446.71" width="24.15" height="48.29"/><rect x="193.17" y="446.71" width="24.15" height="48.29"/><rect x="48.29" y="470.85" width="217.32" height="24.15"/><rect x="48.29" y="398.41" width="24.15" height="72.44"/><rect class="cls-5" x="120.73" y="277.68" width="12.07" height="84.51"/><rect class="cls-6" x="132.8" y="301.83" width="253.54" height="36.22"/><rect class="cls-6" x="374.27" y="313.9" width="24.15" height="12.07"/><rect class="cls-2" x="156.95" y="313.9" width="156.95" height="12.07"/></g><g id="Helmet_Structure_copy" data-name="Helmet Structure copy"><rect x="48.29" y="48.29" width="24.15" height="36.22"/><rect x="72.44" y="24.15" width="24.15" height="24.15"/><rect x="96.59" width="96.59" height="24.15"/><rect x="193.17" y="24.15" width="24.15" height="24.15"/><rect x="229.39" y="48.29" width="12.07" height="60.37"/><rect x="72.44" y="72.44" width="36.22" height="12.07"/><rect x="108.66" y="60.37" width="12.07" height="12.07"/><rect x="120.73" y="48.29" width="48.29" height="12.07"/><rect x="193.17" y="72.44" width="12.07" height="36.22"/><rect x="169.02" y="60.37" width="24.15" height="12.07"/><rect x="217.32" y="48.29" width="12.07" height="12.07"/><rect x="205.24" y="108.66" width="24.15" height="12.07"/></g></g></svg>