<svg id="Race_Face" data-name="Race Face" xmlns="http://www.w3.org/2000/svg" viewBox="0 0 314.34 529"><defs><style>.cls-1{fill:#e5a788;}.cls-2{fill:#fff;}.cls-3{fill:#566cd8;}.cls-4{fill:#a67c52;}.cls-5{fill:#f0f;}.cls-6{fill:#fc97ff;}.cls-7{fill:#ad4112;}</style></defs><title>wizard_dwarf</title><g id="Dwarf"><g id="skin_copy_3" data-name="skin copy 3"><rect class="cls-1" x="81.66" y="106.44" width="169.02" height="80.56"/><rect class="cls-1" x="142.02" y="94.37" width="55.98" height="12.07"/><rect class="cls-1" x="117.88" y="178.88" width="125.12" height="36.22"/></g><g id="Head_structure_copy_4" data-name="Head structure copy 4"><rect x="72" y="117.63" width="12.07" height="69.37"/><rect x="238.61" y="118.51" width="12.07" height="48.29"/><rect x="250.68" y="154.73" width="12.07" height="24.15"/><rect x="238.61" y="178.88" width="12.07" height="26.12"/><rect x="190.32" y="130.59" width="24.15" height="36.22"/><rect class="cls-2" x="178.24" y="130.59" width="12.07" height="36.22"/><rect x="190.32" y="190.95" width="36.22" height="12.07"/></g></g><g id="Wizard"><rect class="cls-3" x="48.73" y="215.1" width="241.46" height="169.02"/><rect class="cls-3" x="97.02" y="384.12" width="169.02" height="120.73"/><rect class="cls-3" x="72.88" y="203.02" width="48.29" height="12.07"/><rect class="cls-3" x="99" y="61" width="118.76" height="21.29"/><rect class="cls-3" x="126" y="34" width="99" height="36"/><rect class="cls-3" x="108" y="16" width="99" height="27"/><rect class="cls-3" x="193.61" y="82.29" width="48.29" height="24.15"/><rect class="cls-3" x="347.6" y="84.6" width="20.63" height="40.17" transform="translate(354.6 -253.23) rotate(90)"/><rect class="cls-3" x="63" y="82.29" width="82.32" height="24.15"/><g id="Weapon"><rect class="cls-4" x="72" y="385" width="27" height="27"/><rect class="cls-4" x="63" y="394" width="27" height="27"/><rect class="cls-4" x="54" y="403" width="27" height="27"/><rect class="cls-4" x="45" y="412" width="27" height="27"/><rect class="cls-4" x="36" y="421" width="27" height="27"/><rect class="cls-4" x="27" y="430" width="27" height="27"/><rect class="cls-4" x="18" y="439" width="27" height="27"/><rect class="cls-4" x="9" y="448" width="27" height="27"/><rect class="cls-4" y="457" width="27" height="27"/></g><g id="Body_Structure_copy_2" data-name="Body Structure copy 2"><rect x="145.32" y="215.1" width="96.59" height="24.15"/><rect x="236.85" y="198.85" width="33.15" height="24.15"/><rect x="121.17" y="190.95" width="24.15" height="24.15"/><rect x="72" y="187" width="54" height="24.15"/><rect x="48.73" y="190.95" width="24.15" height="24.15"/><rect x="24.59" y="215.1" width="24.15" height="169.02"/><rect x="97.02" y="239.24" width="24.15" height="46.76"/><rect x="128.85" y="304" width="24.15" height="60.37"/><rect x="108" y="270.63" width="24.15" height="42.37"/><rect x="72" y="360.85" width="63" height="24.15"/><rect x="44.56" y="369.85" width="36.44" height="24.15"/><rect x="97.02" y="385" width="24.15" height="47.41"/><rect x="266.05" y="215.1" width="24.15" height="108.66"/><rect x="241.9" y="287.54" width="24.15" height="193.17"/><rect x="290.2" y="323.76" width="24.15" height="60.37"/><rect x="266.05" y="384.12" width="24.15" height="24.15"/><rect x="193.61" y="384.12" width="24.15" height="96.59"/><rect x="266.05" y="480.71" width="24.15" height="48.29"/><rect x="217.76" y="480.71" width="24.15" height="48.29"/><rect x="72.88" y="504.85" width="217.32" height="24.15"/><rect x="72.88" y="432.41" width="24.15" height="72.44"/></g><g id="Helmet_Structure_copy_2" data-name="Helmet Structure copy 2"><rect x="54" y="106" width="43.02" height="12.51"/><rect x="72" y="70" width="27" height="12.29"/><rect x="90" y="61" width="27" height="12.29"/><rect x="218.03" y="46.68" width="19.65" height="12.29" transform="translate(67.03 280.68) rotate(-90)"/><rect x="207.82" y="33.18" width="19.65" height="3.29" transform="translate(74.82 252.47) rotate(-90)"/><rect x="216" y="43" width="19.65" height="3.29" transform="translate(343.65 89.29) rotate(180)"/><rect x="54" y="79" width="27" height="18"/><rect x="36" y="93.71" width="27" height="12.29"/><rect x="270" y="97" width="27" height="12.29"/><rect x="121.17" y="43" width="31.83" height="15.15"/><rect x="193.17" y="34" width="31.83" height="24.15"/><rect x="117" width="81.33" height="16"/><rect x="189" y="9.85" width="18" height="24.15"/><rect x="144" y="31.15" width="9" height="11.85"/><rect x="108" y="16" width="18" height="11.85"/><rect x="217.76" y="58.15" width="24.15" height="24.15"/><rect x="253.98" y="82.29" width="12.07" height="14.71"/><rect x="261" y="88" width="18" height="14.71"/><rect x="261" y="106" width="18" height="14.71"/><rect x="97.02" y="106.44" width="36.22" height="12.07"/><rect x="133.24" y="94.37" width="12.07" height="12.07"/><rect x="145.32" y="82.29" width="48.29" height="12.07"/><rect x="217.76" y="106.44" width="12.07" height="17.56"/><rect x="193.61" y="94.37" width="24.15" height="12.07"/><rect x="241.9" y="82.29" width="12.07" height="12.07"/><rect x="227.85" y="111.93" width="33.15" height="12.07"/></g><rect class="cls-4" x="135" y="295" width="27" height="27"/><rect class="cls-4" x="144" y="286" width="27" height="27"/><rect class="cls-4" x="153" y="277" width="27" height="27"/><rect class="cls-4" x="162" y="268" width="27" height="27"/><rect class="cls-4" x="171" y="259" width="27" height="27"/><rect class="cls-5" x="180" y="214" width="63" height="63"/><rect class="cls-6" x="189" y="223" width="45" height="45"/></g><g id="Beard"><rect id="Dwarf_Beard" data-name="Dwarf Beard" class="cls-7" x="144" y="205" width="99" height="90"/><rect id="Dwarf_Beard-2" data-name="Dwarf Beard" class="cls-7" x="135" y="223" width="117" height="45"/><rect id="Dwarf_Beard-3" data-name="Dwarf Beard" class="cls-7" x="153" y="268" width="81" height="45"/><rect class="cls-7" x="171" y="196" width="18" height="9"/><rect class="cls-7" x="225" y="196" width="18" height="9"/><rect class="cls-7" x="180" y="187" width="54" height="9"/><rect class="cls-7" x="171" y="124" width="45" height="9"/></g></svg>